
<svg width="60px" height="55px" viewBox="20 13 60 55" version="1.1" xmlns="http://www.w3.org/2000/svg" xmlns:xlink="http://www.w3.org/1999/xlink">
    <!-- Generator: Sketch 41.1 (35376) - http://www.bohemiancoding.com/sketch -->
    <desc>Created with Sketch.</desc>
    <defs></defs>
    <path d="M65.7143402,61.142849 C65.7143402,62.3928505 64.6786247,63.428566 63.4286232,63.428566 C62.1786217,63.428566 61.1429062,62.3928505 61.1429062,61.142849 C61.1429062,59.8928475 62.1786217,58.857132 63.4286232,58.857132 C64.6786247,58.857132 65.7143402,59.8928475 65.7143402,61.142849 Z M74.8572083,61.142849 C74.8572083,62.3928505 73.8214927,63.428566 72.5714912,63.428566 C71.3214898,63.428566 70.2857742,62.3928505 70.2857742,61.142849 C70.2857742,59.8928475 71.3214898,58.857132 72.5714912,58.857132 C73.8214927,58.857132 74.8572083,59.8928475 74.8572083,61.142849 Z M79.4286423,53.1428394 C79.4286423,51.24998 77.8929262,49.7142639 76.0000668,49.7142639 L59.4286184,49.7142639 L54.5714698,54.5714126 C53.2500396,55.8571284 51.5357519,56.5714149 49.7143211,56.5714149 C47.8928904,56.5714149 46.1786026,55.8571284 44.8571725,54.5714126 L40.0357382,49.7142639 L23.4285755,49.7142639 C21.5357161,49.7142639 20,51.24998 20,53.1428394 L20,64.5714245 C20,66.4642839 21.5357161,68 23.4285755,68 L76.0000668,68 C77.8929262,68 79.4286423,66.4642839 79.4286423,64.5714245 L79.4286423,53.1428394 Z M67.8214856,32.8213866 C67.4643423,31.9999571 66.6429127,31.4285278 65.7143402,31.4285278 L56.5714722,31.4285278 L56.5714722,15.4285088 C56.5714722,14.1785073 55.5357566,13.1427917 54.2857552,13.1427917 L45.1428871,13.1427917 C43.8928856,13.1427917 42.8571701,14.1785073 42.8571701,15.4285088 L42.8571701,31.4285278 L33.7143021,31.4285278 C32.7857295,31.4285278 31.9643,31.9999571 31.6071567,32.8213866 C31.2500134,33.6785305 31.4285851,34.6785317 32.1071573,35.3213896 L48.1071764,51.3214087 C48.5357483,51.785695 49.1428919,51.9999809 49.7143211,51.9999809 C50.2857504,51.9999809 50.892894,51.785695 51.3214659,51.3214087 L67.321485,35.3213896 C68.0000572,34.6785317 68.1786289,33.6785305 67.8214856,32.8213866 Z" id="" stroke="none" fill="#97A2AE" fill-rule="evenodd"></path>
</svg>
