<?xml version="1.0" encoding="UTF-8"?>
<svg width="60px" height="61px" viewBox="0 0 60 61" version="1.1" xmlns="http://www.w3.org/2000/svg" xmlns:xlink="http://www.w3.org/1999/xlink">
    <!-- Generator: Sketch 41.1 (35376) - http://www.bohemiancoding.com/sketch -->
    <title></title>
    <desc>Created with Sketch.</desc>
    <defs></defs>
    <g id="Page-1" stroke="none" stroke-width="1" fill="none" fill-rule="evenodd">
        <g id="Artboard-2-Copy-2" transform="translate(-20.000000, -17.000000)" fill="#97A2AE">
            <path d="M56.5714722,41.7142544 C56.5714722,41.1071108 56.0357572,40.5713959 55.4286137,40.5713959 L47.4286041,40.5713959 L47.4286041,32.5713863 C47.4286041,31.9642428 46.8928892,31.4285278 46.2857456,31.4285278 L44.0000286,31.4285278 C43.392885,31.4285278 42.8571701,31.9642428 42.8571701,32.5713863 L42.8571701,40.5713959 L34.8571606,40.5713959 C34.250017,40.5713959 33.7143021,41.1071108 33.7143021,41.7142544 L33.7143021,43.9999714 C33.7143021,44.607115 34.250017,45.1428299 34.8571606,45.1428299 L42.8571701,45.1428299 L42.8571701,53.1428394 C42.8571701,53.749983 43.392885,54.2856979 44.0000286,54.2856979 L46.2857456,54.2856979 C46.8928892,54.2856979 47.4286041,53.749983 47.4286041,53.1428394 L47.4286041,45.1428299 L55.4286137,45.1428299 C56.0357572,45.1428299 56.5714722,44.607115 56.5714722,43.9999714 L56.5714722,41.7142544 Z M61.1429062,42.8571129 C61.1429062,51.678552 53.9643262,58.857132 45.1428871,58.857132 C36.321448,58.857132 29.142868,51.678552 29.142868,42.8571129 C29.142868,34.0356738 36.321448,26.8570938 45.1428871,26.8570938 C53.9643262,26.8570938 61.1429062,34.0356738 61.1429062,42.8571129 Z M79.4286423,72.571434 C79.4286423,71.3571469 78.9286417,70.178574 78.1072121,69.3571445 L65.8571975,57.1071299 C68.7500581,52.9285535 70.2857742,47.9285475 70.2857742,42.8571129 C70.2857742,28.9642392 59.0357608,17.7142258 45.1428871,17.7142258 C31.2500134,17.7142258 20,28.9642392 20,42.8571129 C20,56.7499866 31.2500134,68 45.1428871,68 C50.2143217,68 55.2143277,66.4642839 59.3929041,63.5714233 L71.6429187,75.7857236 C72.4643483,76.6428674 73.6429211,77.142868 74.8572083,77.142868 C77.3929256,77.142868 79.4286423,75.1071513 79.4286423,72.571434 Z" id=""></path>
        </g>
    </g>
</svg>