<svg id="Layer_1" data-name="Layer 1" xmlns="http://www.w3.org/2000/svg" xmlns:xlink="http://www.w3.org/1999/xlink" viewBox="0 0 557.29 357.3"><defs><style>.cls-1{fill:url(#linear-gradient);}.cls-2{fill:#fff;}.cls-3{fill:#a6e4f8;opacity:0.65;}.cls-4{font-size:14.56px;}.cls-10,.cls-4,.cls-5,.cls-8{fill:#241f20;}.cls-4,.cls-5{font-family:HelveticaNeue-Medium, Helvetica Neue;}.cls-5{font-size:24.94px;}.cls-6{letter-spacing:-0.02em;}.cls-14,.cls-7{fill:none;stroke-miterlimit:10;}.cls-7{stroke:#241f20;stroke-width:1.94px;}.cls-9{mask:url(#mask);}.cls-10{font-size:33.61px;font-family:CourierNewPSMT, Courier New;}.cls-11{font-size:19px;}.cls-11,.cls-13,.cls-15{fill:#a7a9ac;}.cls-11,.cls-13,.cls-16{font-family:HelveticaNeue-Light, Helvetica Neue;}.cls-12{letter-spacing:-0.02em;}.cls-13,.cls-16{font-size:24px;}.cls-14{stroke:#a7a9ac;stroke-width:0.75px;}.cls-16{fill:#6d6e71;}.cls-17{letter-spacing:-0.02em;}.cls-18{letter-spacing:0em;}</style><linearGradient id="linear-gradient" x1="169.17" y1="178.89" x2="252.62" y2="178.89" gradientUnits="userSpaceOnUse"><stop offset="0" stop-color="#fff"/><stop offset="1"/></linearGradient><mask id="mask" x="7.06" y="87.1" width="259.44" height="142.33" maskUnits="userSpaceOnUse"><g transform="translate(-18.47 -4.03)"><rect class="cls-1" x="169.17" y="166.5" width="83.45" height="24.78"/><rect class="cls-2" x="25.53" y="94.68" width="143.64" height="96.6"/><rect class="cls-2" x="169.17" y="94.68" width="83.45" height="71.82"/></g></mask></defs><title>new_the_task (1)</title><rect class="cls-3" x="0.69" y="83.85" width="265.81" height="163.03"/><text class="cls-4" transform="translate(24.95 223.1)">Input: amino acid sequence</text><rect class="cls-3" x="291.48" y="83.85" width="265.81" height="163.03"/><text class="cls-5" transform="translate(324.55 123.25)">- Amylase activity<tspan x="0" y="59.86">- Exported p</tspan><tspan class="cls-6" x="144.14" y="59.86">r</tspan><tspan x="152.47" y="59.86">otein</tspan></text><line class="cls-7" x1="255.8" y1="158.57" x2="298.77" y2="158.57"/><path class="cls-8" d="M328.94,162.6c-5.5,2-12.34,5.53-16.57,9.22l3.33-9.22-3.33-9.22C316.6,157.07,323.44,160.55,328.94,162.6Z" transform="translate(-18.47 -4.03)"/><text class="cls-4" transform="translate(310.47 218.1)">Output: annotation with a subset<tspan x="0" y="17.47" xml:space="preserve"> of &gt;10,000 multi-hot labels</tspan></text><g class="cls-9"><text class="cls-10" transform="translate(10.96 113.51)">MEGERSTCFYY<tspan x="0" y="23.27">FWAWLPINAWE</tspan><tspan x="0" y="46.54">LPMEEEFSTPI</tspan><tspan x="0" y="69.81">LNRRFLAWAFL</tspan></text></g><text class="cls-11" transform="translate(431.13 47.84)">Apply &gt;50,000 <tspan x="-33.48" y="22.8">signatu</tspan><tspan class="cls-12" x="25.63" y="22.8">r</tspan><tspan x="31.27" y="22.8">es &amp; HMMs</tspan></text><text class="cls-11" transform="translate(0.69 47.84)">Find closest seq in large<tspan x="0" y="22.8">DB, transfer annotations</tspan></text><text class="cls-13" transform="translate(216.87 284.04)">Apply single<tspan x="-43.81" y="28.8">deep neural network</tspan></text><line class="cls-14" x1="279.17" y1="252.18" x2="279.17" y2="215"/><path class="cls-15" d="M297.64,214.5a22.73,22.73,0,0,0,3.56,6.41l-3.56-1.29-3.57,1.29A22.51,22.51,0,0,0,297.64,214.5Z" transform="translate(-18.47 -4.03)"/><text class="cls-16" transform="translate(423.44 20.57)">InterP<tspan class="cls-17" x="60.45" y="0">r</tspan><tspan class="cls-18" x="67.58" y="0">oScan</tspan></text><text class="cls-16" transform="translate(0 20.57)">BLAST</text><text class="cls-16" transform="translate(229.17 349.98)">P<tspan class="cls-17" x="15.12" y="0">r</tspan><tspan x="22.25" y="0">oteInfer</tspan></text><path class="cls-14" d="M291,112V79.8c0-35.82-16.75-63.92-63.2-63.92H108.4" transform="translate(-18.47 -4.03)"/><path class="cls-15" d="M291,116.5a22.65,22.65,0,0,1,3.57-6.41L291,111.38l-3.56-1.29A22.87,22.87,0,0,1,291,116.5Z" transform="translate(-18.47 -4.03)"/><path class="cls-14" d="M301.45,112V79.8c0-35.82,16.76-63.92,63.2-63.92h65.5" transform="translate(-18.47 -4.03)"/><path class="cls-15" d="M301.45,116.5a22.65,22.65,0,0,1,3.57-6.41l-3.57,1.29-3.57-1.29A22.65,22.65,0,0,1,301.45,116.5Z" transform="translate(-18.47 -4.03)"/></svg>